<?xml version="1.0" encoding="UTF-8"?>
<svg id="Camada_1" xmlns="http://www.w3.org/2000/svg" version="1.1" viewBox="0 0 96.7 44" width="143" height="44">
  <!-- Generator: Adobe Illustrator 29.0.0, SVG Export Plug-In . SVG Version: 2.1.0 Build 186)  -->
  <defs>
    <style>
      .st0 {
        fill: #fff;
      }
    </style>
  </defs>
  <path class="st0" d="M95,12.8v21c0,.5-.4.9-.9.9s-.5-.1-.6-.3l-5.5-5.5c-.2-.2-.3-.4-.3-.6v-15.5c0-2-1.6-3.7-3.7-3.7s-3.7,1.6-3.7,3.7v7.3c0,.4,0,.8,0,1.2,0,.6-.2,1.1-.3,1.7,0,.3-.1.5-.2.8-1.1,3.1-3.6,5.6-6.7,6.7-1.1.4-2.4.6-3.7.6s-2.5-.2-3.7-.6c-3.1-1.1-5.6-3.6-6.7-6.7,0-.3-.2-.5-.2-.8-.2-.9-.4-1.9-.4-2.9v-7.3c0-2-1.6-3.7-3.7-3.7s-3.7,1.6-3.7,3.7v25.6c0,2-1.6,3.7-3.7,3.7h-5.4c-.3,0-.5-.1-.6-.3l-5.8-5.8h0c0,0-.1-.2-.1-.2h0c-.6-.6-1.5-1-2.5-1h-8.4c-.2,0-.5,0-.6-.2,0,0,0,0,0,0l-10.7-10.7-1-1h-.1c-.6-.8-1-1.7-1-2.6,0-2,1.6-3.7,3.7-3.7h14.6c2,0,3.7-1.6,3.7-3.7s-1.6-3.7-3.7-3.7H10.1c-.5,0-.9.4-.9.9v23.8c0,.5-.4.8-.9.8s-.5-.1-.6-.3l-5.5-5.5c-.2-.2-.3-.4-.3-.6V5.4c0-2,1.7-3.6,3.6-3.6h23.7c4.8,0,8.8,3.1,10.3,7.3.4,1.1.6,2.4.6,3.7s-.2,2.5-.6,3.7c-1.5,4.3-5.6,7.3-10.3,7.3h-5.8l9.9,9.9c.7.7,1.6,1.1,2.6,1.1h7c.5,0,.9-.4.9-.9V12.8c0-1.3.2-2.5.6-3.7,1.1-3.1,3.6-5.6,6.7-6.7,1.1-.4,2.4-.6,3.7-.6s2.5.2,3.7.6c3.1,1.1,5.6,3.6,6.7,6.7,0,.3.2.5.2.8.2.9.4,1.9.4,2.9v7.3c0,2,1.6,3.7,3.7,3.7s3.7-1.6,3.7-3.7v-7.3c0-1,.1-2,.4-2.9,0-.3.1-.5.2-.8,1.1-3.1,3.6-5.6,6.7-6.7,1.1-.4,2.4-.6,3.7-.6s2.5.2,3.7.6c3.1,1.1,5.6,3.6,6.7,6.7.4,1.1.6,2.4.6,3.7Z"/>
</svg>